<svg width="32" height="32" viewBox="0 0 32 32" fill="none" xmlns="http://www.w3.org/2000/svg">
<path d="M24.984 14.1667V3.76672C24.984 1.86005 23.424 0.300049 21.5173 0.300049H11.1173C9.21062 0.300049 7.65062 1.86005 7.65062 3.76672V7.23338H4.18395C2.27729 7.23338 0.717285 8.79338 0.717285 10.7V28.0334C0.717285 29.94 2.27729 31.5 4.18395 31.5H12.8506C13.804 31.5 14.584 30.72 14.584 29.7667V24.5667H18.0506V29.7667C18.0506 30.72 18.8306 31.5 19.784 31.5H28.4506C30.3573 31.5 31.9173 29.94 31.9173 28.0334V17.6334C31.9173 15.7267 30.3573 14.1667 28.4506 14.1667H24.984ZM7.65062 28.0334H4.18395V24.5667H7.65062V28.0334ZM7.65062 21.1H4.18395V17.6334H7.65062V21.1ZM7.65062 14.1667H4.18395V10.7H7.65062V14.1667ZM14.584 21.1H11.1173V17.6334H14.584V21.1ZM14.584 14.1667H11.1173V10.7H14.584V14.1667ZM14.584 7.23338H11.1173V3.76672H14.584V7.23338ZM21.5173 21.1H18.0506V17.6334H21.5173V21.1ZM21.5173 14.1667H18.0506V10.7H21.5173V14.1667ZM21.5173 7.23338H18.0506V3.76672H21.5173V7.23338ZM28.4506 28.0334H24.984V24.5667H28.4506V28.0334ZM28.4506 21.1H24.984V17.6334H28.4506V21.1Z" fill="#FFC920"/>
</svg>
