<svg width="46" height="32" viewBox="0 0 46 32" fill="none" xmlns="http://www.w3.org/2000/svg">
<path d="M29.3373 0.300049C29.7235 0.300255 30.102 0.407966 30.4304 0.611118C30.7588 0.81427 31.0242 1.10484 31.1968 1.45029L37.9048 14.8642L38.0712 14.8704C39.6971 14.9514 41.2635 15.5076 42.5764 16.4701C43.8893 17.4326 44.891 18.7591 45.4574 20.2853C46.0238 21.8115 46.1301 23.4704 45.763 25.0563C45.3959 26.6423 44.5716 28.0858 43.3922 29.2079C42.2128 30.33 40.7301 31.0814 39.1278 31.3692C37.5255 31.6569 35.874 31.4682 34.3779 30.8266C32.8818 30.1849 31.6068 29.1185 30.7108 27.7593C29.8148 26.4001 29.3373 24.808 29.3373 23.18L29.3477 22.764C29.419 21.3286 29.8609 19.9361 30.6304 18.7223C31.3999 17.5084 32.4708 16.5146 33.7386 15.8376L32.58 13.5184L25.6078 20.4906C25.2179 20.8807 24.6889 21.0999 24.1373 21.1H16.5952C16.7671 21.767 16.8545 22.4604 16.8573 23.18C16.8573 25.3866 15.9807 27.5029 14.4204 29.0632C12.8601 30.6235 10.7439 31.5 8.53728 31.5C6.33068 31.5 4.21446 30.6235 2.65416 29.0632C1.09385 27.5029 0.217285 25.3866 0.217285 23.18L0.227685 22.764C0.302015 21.2701 0.777699 19.8239 1.60467 18.5775C2.43164 17.3312 3.57931 16.3308 4.92688 15.6817C6.27446 15.0326 7.7721 14.7588 9.26216 14.8891C10.7522 15.0194 12.1796 15.549 13.3941 16.4221L17.032 12.78H10.6173C10.1078 12.78 9.6161 12.5929 9.23539 12.2544C8.85468 11.9159 8.61145 11.4494 8.55184 10.9434L8.53728 10.7C8.53728 10.1484 8.75643 9.61934 9.1465 9.22927C9.53658 8.83919 10.0656 8.62005 10.6173 8.62005H30.1298L28.0498 4.46005H25.1773C24.6678 4.45998 24.1761 4.27294 23.7954 3.9344C23.4147 3.59586 23.1714 3.12937 23.1118 2.62341L23.0973 2.38005C23.0973 1.8284 23.3164 1.29934 23.7065 0.909267C24.0966 0.519191 24.6256 0.300049 25.1773 0.300049H29.3373Z" fill="#039754"/>
</svg>
