<svg width="36" height="32" viewBox="0 0 36 32" fill="none" xmlns="http://www.w3.org/2000/svg">
<path d="M4.56699 12.4L7.49199 3.62495H28.942L31.867 12.4M28.942 22.15C28.1662 22.15 27.4222 21.8418 26.8737 21.2932C26.3252 20.7447 26.017 20.0007 26.017 19.225C26.017 18.4492 26.3252 17.7052 26.8737 17.1567C27.4222 16.6081 28.1662 16.3 28.942 16.3C29.7177 16.3 30.4617 16.6081 31.0103 17.1567C31.5588 17.7052 31.867 18.4492 31.867 19.225C31.867 20.0007 31.5588 20.7447 31.0103 21.2932C30.4617 21.8418 29.7177 22.15 28.942 22.15ZM7.49199 22.15C6.71623 22.15 5.97225 21.8418 5.4237 21.2932C4.87516 20.7447 4.56699 20.0007 4.56699 19.225C4.56699 18.4492 4.87516 17.7052 5.4237 17.1567C5.97225 16.6081 6.71623 16.3 7.49199 16.3C8.26775 16.3 9.01174 16.6081 9.56028 17.1567C10.1088 17.7052 10.417 18.4492 10.417 19.225C10.417 20.0007 10.1088 20.7447 9.56028 21.2932C9.01174 21.8418 8.26775 22.15 7.49199 22.15ZM31.711 2.64995C31.321 1.51895 30.229 0.699951 28.942 0.699951H7.49199C6.20499 0.699951 5.11299 1.51895 4.72299 2.64995L0.666992 14.35V29.95C0.666992 30.4671 0.872438 30.9631 1.23813 31.3288C1.60383 31.6945 2.09982 31.9 2.61699 31.9H4.56699C5.08416 31.9 5.58015 31.6945 5.94585 31.3288C6.31155 30.9631 6.51699 30.4671 6.51699 29.95V28H29.917V29.95C29.917 30.4671 30.1224 30.9631 30.4881 31.3288C30.8538 31.6945 31.3498 31.9 31.867 31.9H33.817C34.3342 31.9 34.8302 31.6945 35.1959 31.3288C35.5615 30.9631 35.767 30.4671 35.767 29.95V14.35L31.711 2.64995Z" fill="#3977FE"/>
</svg>
