<svg width="33" height="32" viewBox="0 0 33 32" fill="none" xmlns="http://www.w3.org/2000/svg">
<path d="M12.6973 2.79605H20.1853C20.5163 2.79605 20.8337 2.92753 21.0678 3.16158C21.3018 3.39562 21.4333 3.71306 21.4333 4.04405V6.54005H11.4493V4.04405C11.4493 3.71306 11.5808 3.39562 11.8148 3.16158C12.0489 2.92753 12.3663 2.79605 12.6973 2.79605ZM8.95329 4.04405V6.54005H5.83329C4.34383 6.54005 2.91538 7.13173 1.86217 8.18494C0.808969 9.23814 0.217285 10.6666 0.217285 12.156V14.028C0.217285 15.021 0.611741 15.9733 1.31388 16.6755C2.01601 17.3776 2.96831 17.772 3.96129 17.772H12.6973V17.148C12.6973 16.6516 12.8945 16.1754 13.2456 15.8243C13.5966 15.4733 14.0728 15.276 14.5693 15.276H18.3133C18.8098 15.276 19.2859 15.4733 19.637 15.8243C19.9881 16.1754 20.1853 16.6516 20.1853 17.148V17.772H28.9213C29.9143 17.772 30.8666 17.3776 31.5687 16.6755C32.2708 15.9733 32.6653 15.021 32.6653 14.028V12.156C32.6653 10.6666 32.0736 9.23814 31.0204 8.18494C29.9672 7.13173 28.5387 6.54005 27.0493 6.54005H23.9293V4.04405C23.9293 3.05108 23.5348 2.09878 22.8327 1.39664C22.1306 0.694505 21.1783 0.300049 20.1853 0.300049H12.6973C11.7043 0.300049 10.752 0.694505 10.0499 1.39664C9.34774 2.09878 8.95329 3.05108 8.95329 4.04405ZM12.6973 20.268V20.892C12.6973 21.3885 12.8945 21.8647 13.2456 22.2158C13.5966 22.5668 14.0728 22.764 14.5693 22.764H18.3133C18.8098 22.764 19.2859 22.5668 19.637 22.2158C19.9881 21.8647 20.1853 21.3885 20.1853 20.892V20.268H28.9213C30.2717 20.2699 31.586 19.8318 32.6653 19.02V25.884C32.6653 27.3735 32.0736 28.802 31.0204 29.8552C29.9672 30.9084 28.5387 31.5 27.0493 31.5H5.83329C4.34383 31.5 2.91538 30.9084 1.86217 29.8552C0.808969 28.802 0.217285 27.3735 0.217285 25.884V19.02C1.26061 19.8038 2.55604 20.268 3.96129 20.268H12.6973Z" fill="#FE3E00"/>
</svg>
