<svg width="525" height="300" viewBox="0 0 525 300" fill="none" xmlns="http://www.w3.org/2000/svg">
<path d="M349.956 0V300H274.978V0H349.956ZM125.022 24.9344C194.051 24.9344 250.044 80.9274 250.044 149.956C250.044 218.985 194.051 274.978 125.022 274.978C55.993 274.978 0 218.985 0 149.956C0 80.9274 55.993 24.9344 125.022 24.9344ZM427.996 74.9781L449.956 96.9379L471.916 74.9781H524.934V127.996L502.975 149.956L524.934 171.916V224.934H471.916L449.956 202.975L427.996 224.934H374.978V171.916L396.938 149.956L374.978 127.996V74.9781H427.996ZM125.022 100C97.4628 100 75.0656 122.397 75.0656 149.956C75.0656 177.515 97.4628 199.913 125.022 199.913C152.581 199.913 174.978 177.515 174.978 149.956C174.978 122.397 152.581 100 125.022 100Z" fill="white"/>
</svg>
